<?xml version="1.0"?>
<svg xmlns="http://www.w3.org/2000/svg" xmlns:xlink="http://www.w3.org/1999/xlink" version="1.1" viewBox="0 0 252 252" width="480px" height="480px"><g fill="none" fill-rule="nonzero" stroke="none" stroke-width="1" stroke-linecap="butt" stroke-linejoin="miter" stroke-miterlimit="10" stroke-dasharray="" stroke-dashoffset="0" font-family="none" font-weight="none" font-size="none" text-anchor="none" style="mix-blend-mode: normal"><path d="M0,252v-252h252v252z" fill="none"/><g fill="#7d0ce8"><g id="surface1"><path d="M168.86133,33.42774c-3.36328,-1.66114 -6.11133,0.02051 -6.11133,3.79394v149.3584l61.29785,30.63867c6.74707,3.36328 12.20215,1.00488 12.20215,-5.27051v-143.8418c0,-0.59473 -0.34863,-1.14844 -0.88184,-1.41504z"/><path d="M89.25,149.80957l69.93164,-113.61328c1.96875,-3.19922 6.31641,-4.42969 9.67969,-2.76855l66.58886,33.30469c0.43067,0.22558 0.57422,0.75879 0.32813,1.16894l-73.02832,118.6582z"/><path d="M25.92188,35.47852c-5.59863,-2.80957 -7.48535,-0.73828 -4.2041,4.59375l67.53223,109.7373l73.5,36.75l-73.33594,-119.17089c-0.10254,-0.16406 -0.2666,-0.30762 -0.43066,-0.38965z"/><path d="M89.25,211.94824c0,6.25488 -4.57324,9.08496 -10.17187,6.27539l-57.21679,-28.60839c-3.36328,-1.66114 -6.11133,-6.11133 -6.11133,-9.86426v-140.27344c0,-5.00391 3.6709,-7.25976 8.1416,-5.02441l64.96875,32.48438c0.24609,0.12305 0.38965,0.36914 0.38965,0.63574z"/></g></g></g></svg>
