<?xml version="1.0"?>
<svg xmlns="http://www.w3.org/2000/svg" xmlns:xlink="http://www.w3.org/1999/xlink" version="1.1" viewBox="0 0 252 252" width="480px" height="480px"><g fill="none" fill-rule="nonzero" stroke="none" stroke-width="1" stroke-linecap="butt" stroke-linejoin="miter" stroke-miterlimit="10" stroke-dasharray="" stroke-dashoffset="0" font-family="none" font-weight="none" font-size="none" text-anchor="none" style="mix-blend-mode: normal"><path d="M0,252v-252h252v252z" fill="none"/><g fill="#7d0ce8"><g id="surface1"><path d="M220.5,65.25586c-6.95215,3.07617 -14.41699,5.12695 -22.29199,6.09082c7.99805,-4.75781 14.1709,-12.34571 17.0625,-21.30762c-7.50586,4.40918 -15.81152,7.62891 -24.62988,9.33106c-7.05469,-7.48535 -17.12402,-12.12012 -28.28027,-12.12012c-21.41016,0 -38.78027,17.20606 -38.78027,38.43164c0,2.99414 0.34863,5.92676 1.00488,8.75683c-32.21777,-1.59961 -60.80566,-16.91894 -79.91894,-40.1748c-3.36328,5.68066 -5.25,12.32519 -5.25,19.35938c0,13.33008 6.8291,25.08105 17.24707,31.99219c-6.35742,-0.18457 -12.34571,-1.96875 -17.57519,-4.79883c0,0.12305 0,0.28711 0,0.45117c0,18.6416 13.37109,34.16601 31.08984,37.71386c-3.24024,0.88184 -6.66504,1.37402 -10.19239,1.37402c-2.50195,0 -4.94238,-0.28711 -7.30078,-0.71777c4.92188,15.23731 19.23633,26.37305 36.2168,26.70117c-13.28906,10.29492 -30.00293,16.46777 -48.17285,16.46777c-3.1377,0 -6.21387,-0.18457 -9.24902,-0.55371c17.18554,10.86914 37.57031,17.24707 59.45215,17.24707c71.32617,0 110.35254,-58.57031 110.35254,-109.38867c0,-1.66114 -0.06152,-3.32227 -0.14356,-4.94239c7.6084,-5.39355 14.1709,-12.16113 19.35938,-19.91308"/></g></g></g></svg>
